<svg xmlns="http://www.w3.org/2000/svg" viewBox="0 0 24 24" fill="#65B741">
    <path d="M7.5 20a2.5 2.5 0 100-5 2.5 2.5 0 000 5zM12 5.52c-.28 0-.5.22-.5.5v11.5c0 .28.22.5.5.5s.5-.22.5-.5V6.02c0-.28-.22-.5-.5-.5zm3.5-1.02c-.28 0-.5.22-.5.5v12.5c0 .28.22.5.5.5s.5-.22.5-.5V5c0-.28-.22-.5-.5-.5zm-7 0c-.28 0-.5.22-.5.5v12.5c0 .28.22.5.5.5s.5-.22.5-.5V5c0-.28-.22-.5-.5-.5zm-.75-1.5h8.5c.41 0 .75.34.75.75s-.34.75-.75.75h-8.5c-.41 0-.75-.34-.75-.75S7.34 3 7.75 3zM16.75 21.25l-4.72-9.45c-.16-.31.02-.69.36-.76l.07-.01c.19-.04.38.03.5.19l4.72 9.45c.16.31-.02-.69-.36-.76l-.07.01c-.19-.04-.38-.03-.5-.19zM15.75 10.25c-.2-.4-.06-.89.32-1.12l.07-.04.08-.03 1.5-.5c.4-.13.83.14.92.54l.01.07.01.06.5 2c.13.4-.14.83-.54.92l-.07.01-.06.01-1.5.5c-.4.13-.83-.14-.92-.54l-.01-.07-.01-.06-.5-2z"/>
</svg>
